<svg width="36" height="36" viewBox="0 0 36 36" fill="none" xmlns="http://www.w3.org/2000/svg">
<g id="Frame" clip-path="url(#clip0_5_19)">
<path id="Icon ionic-ios-search" d="M35.5796 33.3936L25.5676 23.2895C27.8364 20.4309 28.923 16.8116 28.6036 13.1763C28.2843 9.5411 26.5834 6.16651 23.8509 3.74696C21.1184 1.32741 17.5622 0.0469768 13.9141 0.169134C10.266 0.291291 6.80344 1.80675 4.23902 4.40366C1.67459 7.00058 0.20335 10.4814 0.12804 14.1298C0.0527302 17.7783 1.37908 21.3168 3.83416 24.0173C6.28924 26.7178 9.68628 28.3747 13.3263 28.6473C16.9662 28.9198 20.5722 27.7871 23.4023 25.4823L33.3489 35.5197C33.6303 35.8147 34.0171 35.9862 34.4247 35.9967C34.8323 36.0072 35.2274 35.8558 35.5236 35.5757C35.8188 35.2928 35.9904 34.9048 36.0008 34.4962C36.0113 34.0875 35.8599 33.6912 35.5796 33.3936ZM14.3543 25.6023C11.7478 25.6017 9.2221 24.6976 7.20758 23.0441C5.19306 21.3906 3.81431 19.09 3.30623 16.5341C2.79816 13.9783 3.19219 11.3254 4.42119 9.02748C5.6502 6.72952 7.63814 4.92866 10.0463 3.93172C12.4545 2.93478 15.134 2.80343 17.6282 3.56005C20.1224 4.31668 22.277 5.91446 23.725 8.08119C25.173 10.2479 25.8247 12.8495 25.5692 15.4428C25.3136 18.0361 24.1666 20.4605 22.3236 22.3031C21.2793 23.3524 20.0372 24.1842 18.6693 24.7505C17.3014 25.3167 15.8348 25.6063 14.3543 25.6023Z" fill="white"/>
</g>
<defs>
<clipPath id="clip0_5_19">
<rect width="36" height="36" fill="white"/>
</clipPath>
</defs>
</svg>
