<svg width="19" height="19" viewBox="0 0 19 19" fill="none" xmlns="http://www.w3.org/2000/svg">
<g id="Frame" clip-path="url(#clip0_21_44)">
<path id="Vector" d="M9.51183 19C11.9799 19 14.448 19.0006 16.916 19C17.9935 19 18.7832 18.3487 18.9779 17.2966C18.9973 17.1922 18.9968 17.083 18.9968 16.976C18.9978 14.0521 18.9962 11.1282 19 8.20427C19 8.00956 18.9387 7.85896 18.8069 7.71911C16.7057 5.49767 14.6045 3.2757 12.5082 1.04942C11.8476 0.347491 11.0509 -0.0032052 10.082 2.20712e-05C7.4128 0.009166 4.74354 0.00271146 2.07429 0.00324934C0.999489 0.00324934 0.211409 0.658385 0.0188274 1.71316C0 1.81751 0.000537872 1.9267 0.000537872 2.03374C-0.000537872 7.00965 -0.00107574 11.9861 0.000537872 16.962C0.00107574 18.1319 0.871998 18.9984 2.04739 18.9989C4.53536 19.0011 7.02387 19 9.51183 19Z" fill="#707070"/>
<path id="Vector_2" d="M17.375 7.63175C16.7935 7.01642 16.2459 6.43713 15.6982 5.85783C14.4088 4.49324 13.1129 3.13456 11.8326 1.76082C11.3302 1.22186 10.7347 0.963682 9.99986 0.965834C7.37794 0.973364 4.75549 0.968523 2.13358 0.969061C1.38531 0.969061 0.965715 1.38861 0.965715 2.13787C0.965178 3.90803 0.967867 5.67872 0.961411 7.44888C0.960873 7.60379 1.00229 7.63498 1.15023 7.63498C6.50164 7.63122 11.8531 7.63175 17.2045 7.63175C17.2432 7.63175 17.2819 7.63175 17.375 7.63175Z" fill="white"/>
<path id="Vector_3" d="M4.34513 10.9501C4.74697 10.9501 5.14881 10.9517 5.55118 10.9496C5.89009 10.9479 6.12248 10.7446 6.1171 10.4596C6.11172 10.1799 5.88578 9.98515 5.5571 9.98461C4.75342 9.983 3.9492 9.983 3.14552 9.98461C2.80662 9.98515 2.57369 10.1895 2.57961 10.4741C2.58553 10.7543 2.81039 10.9479 3.1396 10.9496C3.54091 10.9523 3.94275 10.9501 4.34513 10.9501Z" fill="white"/>
</g>
<defs>
<clipPath id="clip0_21_44">
<rect width="19" height="19" fill="white" transform="matrix(-1 0 0 1 19 0)"/>
</clipPath>
</defs>
</svg>
