<svg width="19" height="19" viewBox="0 0 19 19" fill="none" xmlns="http://www.w3.org/2000/svg">
<g id="Frame" clip-path="url(#clip0_23_2416)">
<path id="Icon material-ac-unit" d="M19 8.55H15.0385L18.1165 5.472L16.777 4.123L12.35 8.55H10.45V6.65L14.877 2.223L13.528 0.886667L10.45 3.9615V0H8.55V3.9615L5.472 0.8835L4.123 2.223L8.55 6.65V8.55H6.65L2.223 4.123L0.8835 5.472L3.9615 8.55H0V10.45H3.9615L0.8835 13.528L2.223 14.877L6.65 10.45H8.55V12.35L4.123 16.777L5.472 18.1133L8.55 15.0353V19H10.45V15.0385L13.528 18.1165L14.877 16.777L10.45 12.35V10.45H12.35L16.777 14.877L18.1133 13.528L15.0353 10.45H19V8.55Z" fill="#212529"/>
</g>
<defs>
<clipPath id="clip0_23_2416">
<rect width="19" height="19" fill="white"/>
</clipPath>
</defs>
</svg>
