<svg width="40" height="36" viewBox="0 0 40 36" fill="none" xmlns="http://www.w3.org/2000/svg">
<g id="Frame" clip-path="url(#clip0_29_10622)">
<path id="Vector" d="M36.7187 3.48253C34.6481 1.38252 31.841 0.203695 28.9147 0.205307C25.9884 0.20692 23.1826 1.38884 21.1142 3.49113L20.0248 4.59806L18.9159 3.47393C17.3755 1.90351 15.4107 0.832922 13.2706 0.397877C11.1304 -0.0371671 8.91122 0.182924 6.89435 1.03025C4.87749 1.87758 3.15376 3.31398 1.94167 5.15738C0.729581 7.00078 0.0837142 9.16817 0.0859433 11.3848C0.0859433 14.3782 1.24364 17.185 3.33037 19.3042L19.1963 35.4179C19.301 35.5258 19.4257 35.6117 19.5632 35.6705C19.7006 35.7294 19.8482 35.7601 19.9974 35.7609C20.1465 35.7617 20.2944 35.7326 20.4325 35.6752C20.5705 35.6178 20.6961 35.5333 20.8019 35.4265L36.6997 19.3386C38.7687 17.2363 39.9324 14.3865 39.9356 11.4141C39.9388 8.44177 38.7812 5.58942 36.7167 3.48253H36.7187ZM35.0967 17.6985L19.9994 32.9723L4.9354 17.6742C4.11621 16.851 3.46529 15.8715 3.02005 14.792C2.57482 13.7125 2.34404 12.5543 2.34099 11.3839C2.33794 10.2135 2.56268 9.05408 3.00229 7.9722C3.4419 6.89032 4.0877 5.90734 4.9026 5.07975C5.71749 4.25217 6.68539 3.5963 7.75068 3.14984C8.81597 2.70339 9.95764 2.47515 11.1101 2.47825C12.2625 2.48134 13.4029 2.71571 14.4659 3.16789C15.5288 3.62006 16.4933 4.28112 17.3039 5.11307L19.2148 7.05221C19.3206 7.1602 19.4463 7.2459 19.5848 7.30437C19.7233 7.36285 19.8718 7.39295 20.0218 7.39295C20.1718 7.39295 20.3203 7.36285 20.4588 7.30437C20.5973 7.2459 20.723 7.1602 20.8288 7.05221L22.7217 5.12976C24.3698 3.49635 26.5854 2.58843 28.8882 2.60281C31.1909 2.61719 33.3953 3.55272 35.0235 5.20659C36.6517 6.86046 37.5724 9.09939 37.5861 11.438C37.5998 13.7767 36.7054 16.0266 35.0967 17.7V17.6985Z" fill="black"/>
</g>
<defs>
<clipPath id="clip0_29_10622">
<rect width="39.8517" height="35.5819" fill="white" transform="translate(0.0859375 0.179199)"/>
</clipPath>
</defs>
</svg>
