<svg width="80" height="78" viewBox="0 0 80 78" fill="none" xmlns="http://www.w3.org/2000/svg">
<g id="Group 464">
<path id="Vector" d="M9.49325 30.875C8.36152 29.0259 7.18523 27.282 6.21033 25.4615C4.94671 23.1008 6.164 20.385 8.9265 19.1662C15.6545 16.1962 22.395 13.2412 29.1302 10.2816C36.457 7.06179 43.7857 3.84497 51.1108 0.623635C54.1566 -0.715453 57.5839 0.155706 59.1808 2.72104C61.9772 7.21526 64.7433 11.7245 67.5325 16.2218C67.6911 16.4775 67.6198 16.5633 67.3454 16.6837C60.4676 19.6974 53.5952 22.7171 46.7246 25.7398C46.4127 25.8767 46.1044 25.9414 45.7515 25.9414C37.1557 25.9354 28.5599 25.9399 19.9622 25.9354C17.4813 25.9339 15.1733 26.4244 13.0916 27.5905C11.7264 28.3548 10.6179 29.3298 9.76594 30.5124C9.69287 30.6087 9.61979 30.705 9.49325 30.875Z" fill="#DEA527"/>
<path id="Vector_2" d="M13.8487 77.9907C9.88349 77.9907 5.91652 77.9907 1.95135 77.9907C1.01678 77.9907 0.235275 77.4286 0.075012 76.6275C0.024592 76.376 0.00298352 76.1167 0.00298352 75.8605C-0.000617907 71.4543 -0.000617907 67.0465 0.0011828 62.6402C0.0011828 61.5146 0.563005 60.9044 1.85231 60.6995C2.19265 60.6451 2.23587 60.5256 2.23226 60.2772C2.21786 59.2897 2.25027 58.3023 2.21606 57.3164C2.05399 52.7005 5.73465 47.9744 12.4207 47.2152C19.4759 46.4141 24.3036 51.1107 25.1391 54.8726C25.3372 55.7653 25.3462 56.672 25.357 57.5772C25.3678 58.456 25.3714 59.3347 25.3606 60.2135C25.357 60.5069 25.483 60.642 25.8252 60.7103C27.0875 60.9588 27.6061 61.5053 27.6097 62.6169C27.6205 67.0775 27.6205 71.5397 27.6169 76.0003C27.6169 76.5064 27.5179 77.0048 27.1199 77.4053C26.7526 77.7749 26.3114 78.0015 25.6991 78C21.7484 77.9845 17.7994 77.9907 13.8487 77.9907Z" fill="#DEA527"/>
<path id="Vector_3" d="M46.7328 30.8765C55.5717 30.8765 64.4107 30.8781 73.2478 30.875C74.2575 30.875 75.2547 30.9475 76.2014 31.2636C78.4781 32.0238 79.612 33.5272 79.9252 35.5426C79.9846 35.9265 79.999 36.3197 79.999 36.7083C80.0026 46.3364 80.0008 55.9645 80.0026 65.5942C80.0026 66.2943 79.9342 66.9882 79.729 67.6682C79.0829 69.7946 77.1661 71.1916 74.5653 71.4214C74.0668 71.4661 73.5646 71.4877 73.0643 71.4877C59.5242 71.4907 45.9841 71.4892 32.444 71.5C31.9994 71.5 31.85 71.4183 31.8752 71.0204C31.9184 70.3373 31.9022 69.6512 31.8896 68.9665C31.8842 68.7229 31.9688 68.615 32.2604 68.6458C32.3684 68.6566 32.48 68.6473 32.5898 68.6473C46.0831 68.6473 59.5764 68.6473 73.0679 68.6473C73.6006 68.6473 74.1316 68.6473 74.6571 68.544C75.692 68.3389 76.322 67.7962 76.5667 66.9126C76.6837 66.4901 76.7017 66.0614 76.7017 65.6312C76.7035 55.963 76.7053 46.2933 76.7017 36.625C76.7017 34.4894 75.791 33.7092 73.2928 33.7076C55.4746 33.7045 37.6563 33.7061 19.838 33.7092C19.5572 33.7092 19.271 33.7092 18.9957 33.7508C17.5324 33.9698 16.6775 34.8194 16.6703 36.0977C16.6559 38.5818 16.6595 41.0659 16.6775 43.5501C16.6793 43.9063 16.6127 44.0003 16.1717 43.9217C15.3474 43.7752 14.5195 43.6056 13.6646 43.638C13.4864 43.6441 13.3658 43.6225 13.3694 43.4267C13.4234 40.756 13.2092 38.0791 13.463 35.4146C13.6844 33.0985 15.7146 31.353 18.3909 30.9814C18.9669 30.9012 19.5428 30.8889 20.1242 30.8889C28.9937 30.8889 37.8632 30.8889 46.7346 30.8889C46.7328 30.8843 46.7328 30.8812 46.7328 30.8765Z" fill="#DEA527"/>
<path id="Vector_4" d="M63.8722 63.3523C62.4843 63.3352 61.0187 62.8922 59.8067 61.9905C59.5809 61.8225 59.4791 61.8282 59.2478 61.9891C57.2604 63.375 54.9751 63.7582 52.4936 62.9719C49.9917 62.1786 48.6983 60.6487 48.5761 58.5777C48.4633 56.6619 50.001 54.8515 52.3233 54.0509C54.6327 53.2547 57.3307 53.5994 59.1905 54.9497C59.4495 55.1378 59.5753 55.1634 59.8585 54.9583C61.7497 53.5795 64.4699 53.2433 66.8089 54.0752C69.1368 54.9027 70.5801 56.7345 70.4691 58.7215C70.3285 61.294 67.5342 63.348 63.8722 63.3523Z" fill="#DEA527"/>
<path id="Vector_5" d="M41.4277 47.1152C35.093 47.1152 28.7564 47.1104 22.4217 47.1249C22.0011 47.1265 21.8843 47.0299 21.9095 46.6612C21.9454 46.1026 21.9275 45.5408 21.9149 44.9805C21.9095 44.7599 21.9975 44.6698 22.2402 44.6956C22.3174 44.7036 22.3965 44.6972 22.4738 44.6972C35.1127 44.6972 47.7535 44.7004 60.3925 44.6875C60.8543 44.6875 60.9801 44.797 60.9495 45.1978C60.9082 45.7146 60.9208 46.2346 60.9478 46.753C60.9621 47.0508 60.8543 47.1281 60.529 47.1249C58.8703 47.1104 57.2134 47.1185 55.5547 47.1185C50.8445 47.1152 46.1361 47.1152 41.4277 47.1152Z" fill="#DEA527"/>
<path id="Vector_6" d="M49.549 40.617C45.8882 40.617 42.2273 40.6122 38.5665 40.6234C38.2138 40.625 38.073 40.5609 38.0962 40.2163C38.13 39.6731 38.1265 39.1266 38.098 38.585C38.0802 38.2709 38.1835 38.1844 38.5362 38.1876C40.4904 38.2036 42.4447 38.1956 44.3989 38.1956C49.7503 38.1956 55.1018 38.1988 60.4532 38.1876C60.8326 38.1876 60.9716 38.2629 60.9484 38.6219C60.9146 39.1507 60.9164 39.6827 60.9484 40.2115C60.968 40.5465 60.8505 40.6266 60.487 40.625C56.8405 40.6122 53.1939 40.617 49.549 40.617Z" fill="#DEA527"/>
<path id="Vector_7" d="M61.9062 25.9166C64.3023 25.1285 66.6984 24.3404 69.0944 23.5535C69.8559 23.3033 70.6211 23.059 71.3732 22.7995C71.6115 22.7172 71.7232 22.7313 71.8498 22.8887C72.6169 23.8342 73.3951 24.7762 74.1807 25.7158C74.3613 25.9331 74.339 26 73.9033 26C70.0626 25.9906 66.2218 25.9941 62.381 25.9941C62.2265 25.9941 62.0719 25.9941 61.9174 25.9941C61.9137 25.9671 61.91 25.9425 61.9062 25.9166Z" fill="#DEA527"/>
<path id="Vector_8" d="M26.6547 40.6206C25.2054 40.6206 23.7562 40.6162 22.3069 40.6249C21.9993 40.6271 21.8962 40.5769 21.907 40.3859C21.9305 39.9963 21.9305 39.6068 21.907 39.2172C21.8962 39.0306 22.0138 39 22.2906 39C25.2199 39.0055 28.151 39.0055 31.0803 39C31.3463 39 31.4368 39.0426 31.4295 39.2063C31.4114 39.6046 31.4096 40.0051 31.4295 40.4034C31.4386 40.5835 31.3318 40.626 31.0496 40.6238C29.5858 40.6173 28.1203 40.6206 26.6547 40.6206Z" fill="#DEA527"/>
<path id="Vector_9" d="M13.782 60.1178C11.616 60.1178 9.44997 60.1093 7.28393 60.1249C6.84177 60.1278 6.67887 60.0255 6.68782 59.6647C6.71825 58.4659 6.57684 57.2614 6.75943 56.0697C7.18726 53.297 10.3235 51.165 13.8733 51.1877C17.842 51.2132 20.9693 53.7345 20.9461 56.8821C20.9389 57.8097 20.9353 58.7372 20.9496 59.6647C20.955 59.9985 20.7957 60.1249 20.3714 60.1235C18.1768 60.1122 15.9785 60.1178 13.782 60.1178Z" fill="white"/>
<path id="Vector_10" d="M12.3504 72.6674C12.3504 72.119 12.3554 71.5691 12.3488 71.0207C12.3406 70.4246 12.0829 69.9363 11.6134 69.5358C10.512 68.5962 10.2166 67.5303 10.7024 66.2764C11.1637 65.0827 12.3948 64.2339 13.7342 64.1893C15.0621 64.1446 16.3786 64.9548 16.871 66.1193C17.4143 67.4071 17.1484 68.7287 16.0371 69.5543C15.4052 70.0241 15.2066 70.5371 15.264 71.2502C15.3198 71.9311 15.2886 72.6181 15.2722 73.302C15.2492 74.1707 14.6501 74.7407 13.7818 74.7499C13.0021 74.7576 12.4571 74.2123 12.3948 73.3513C12.3783 73.1248 12.3931 72.8953 12.3931 72.6674C12.3767 72.6674 12.3636 72.6674 12.3504 72.6674Z" fill="white"/>
</g>
</svg>
